<?xml version="1.0" encoding="utf-8"?>
<svg viewBox="0 0 500 500" xmlns="http://www.w3.org/2000/svg">
  <defs>
    <radialGradient id="gradient-7" gradientUnits="userSpaceOnUse" cx="892.002" cy="313.953" r="98.273" gradientTransform="matrix(1.021684, 0, 0, 1, -18.916292, -0.426178)">
      <stop offset="0" style="stop-color: rgba(0, 0, 0, 1)"/>
      <stop offset="1" style="stop-color: rgba(0, 0, 0, 1)"/>
    </radialGradient>
  </defs>
  <g transform="matrix(1, 0, 0, 1, -769.979553, -154.104584)">
    <path d="M 898.103 242.495 C 902.436 235.536 909.313 225.603 917.979 216.033 L 917.979 216.033 C 925.335 207.937 939.719 197.522 939.719 197.522 C 941.886 195.951 941.659 193.775 939.19 192.664 L 921.808 184.858 C 919.339 183.746 916.014 184.568 914.377 186.647 C 914.377 186.647 901.504 204.336 886.389 242.037 C 839.583 221.736 795.096 250.181 795.096 299.65 C 795.096 351.318 836.536 429.812 892.586 406.104 C 951.584 430.609 990.076 351.318 990.076 299.65 C 990.076 249.746 950.098 220.504 898.103 242.495 Z" style="fill: rgb(235, 95, 85); stroke-opacity: 0.67;"/>
    <path d="M 887.623 225.748 C 890.319 225.531 892.712 223.235 892.939 220.649 C 892.939 220.649 894.677 200.446 879.99 186.357 C 865.278 172.243 844.244 173.935 844.244 173.935 C 841.548 174.153 839.155 176.448 838.928 179.034 C 838.928 179.034 837.165 199.262 851.852 213.351 C 866.563 227.44 887.623 225.748 887.623 225.748 Z" style="fill: rgb(235, 95, 85);"/>
    <path d="M 892.914 303.482 C 894.918 303.827 895.304 303.377 897.019 305.166 C 899.678 307.938 900.627 311.117 902.207 314.773 C 904.32 319.663 906.88 325.185 909.641 329.595 C 912.117 333.552 915.375 337.122 919.106 339.984 C 922.003 342.205 925.371 343.897 928.86 345.037 C 932.901 346.358 937.233 346.708 941.482 347.003 C 947.396 347.414 953.455 347.865 959.268 346.722 C 963.307 345.928 967.414 344.604 970.743 342.23 C 974.255 339.725 976.964 336.129 979.063 332.403 C 981.295 328.436 982.291 323.891 983.365 319.486 C 984.238 315.894 984.489 312.182 985.086 308.536 C 985.454 306.288 985.273 303.872 986.234 301.798 C 986.795 300.586 987.632 299.362 988.817 298.709 C 989.994 298.059 992.832 298.148 992.832 298.148 L 992.832 285.231 C 992.832 285.231 984.432 283.824 980.21 283.266 C 975.919 282.699 972.174 282.079 967.875 281.582 C 964.046 281.14 960.813 280.777 956.974 280.459 C 952.681 280.104 950.024 279.885 945.717 279.897 C 941.889 279.907 936.107 280.037 932.302 280.459 C 927.96 280.941 924.241 281.53 919.967 282.423 C 916.884 283.068 912.417 284.215 909.354 284.95 C 906.965 285.523 904.597 286.191 902.181 286.635 C 900.096 287.018 897.988 287.336 895.87 287.477 C 893.675 287.623 891.459 287.704 889.272 287.477 C 886.55 287.195 883.918 286.355 881.241 285.794 C 875.886 284.671 865.177 282.424 865.177 282.424 C 865.177 282.424 857.188 280.635 853.127 280.178 C 848.468 279.654 843.761 279.657 839.07 279.617 C 834.957 279.582 830.839 279.624 826.736 279.897 C 821.647 280.236 816.594 280.981 811.531 281.581 C 808.564 281.933 805.605 282.346 802.639 282.704 C 801.014 282.9 799.395 283.172 797.762 283.266 C 796.426 283.343 793.747 283.266 793.747 283.266 L 792.025 295.621 C 792.025 295.621 795.16 296.541 796.328 297.585 C 797.309 298.461 797.922 299.719 798.335 300.955 C 799.201 303.549 799.331 305.757 799.77 308.451 C 800.127 310.626 800.135 313.406 800.63 315.555 C 801.277 318.368 801.836 321.205 802.639 323.98 C 803.296 326.258 803.855 328.598 804.933 330.717 C 805.76 332.344 806.885 333.826 808.09 335.21 C 809.975 337.377 811.964 339.553 814.401 341.106 C 816.915 342.709 819.839 343.65 822.718 344.476 C 826.356 345.519 830.134 346.112 833.907 346.441 C 837.432 346.748 841.005 346.829 844.522 346.441 C 847.934 346.064 851.342 345.363 854.561 344.196 C 858.412 342.8 862.179 340.992 865.463 338.579 C 868.437 336.393 871.071 333.696 873.209 330.717 C 877.313 324.998 879.816 318.598 883.248 312.468 C 885.023 309.301 888.413 304.886 888.413 304.886 C 888.413 304.886 890.765 303.111 892.914 303.482 Z" style="fill: url(#gradient-7);"/>
    <path d="M 977.211 309.35 C 977.164 305.512 977.175 302.607 976.514 298.826 C 976.208 297.077 975.355 294.845 974.403 293.346 C 972.948 291.055 970.86 289.083 968.507 287.73 C 965.888 286.224 962.767 285.787 959.803 285.203 C 957.217 284.693 954.57 284.549 951.941 284.361 C 949.325 284.174 946.701 284.09 944.079 284.08 C 940.708 284.067 937.328 284.057 933.971 284.361 C 931.519 284.583 929.097 285.064 926.671 285.484 C 924.229 285.906 921.725 286.113 919.371 286.888 C 917.105 287.634 914.886 288.634 912.913 289.976 C 911.434 290.982 910.021 292.172 908.982 293.627 C 907.91 295.127 907.119 296.878 906.736 298.681 C 906.095 301.702 906.359 304.881 906.736 307.946 C 907.113 311.01 908.041 313.991 908.982 316.931 C 909.84 319.613 910.794 322.283 912.07 324.793 C 913.176 326.968 914.429 329.103 916.001 330.97 C 917.793 333.099 919.923 334.955 922.178 336.586 C 924.182 338.035 926.352 339.288 928.636 340.236 C 930.88 341.168 933.264 341.775 935.656 342.201 C 937.967 342.613 940.332 342.629 942.675 342.763 C 945.386 342.918 948.106 343.197 950.818 343.044 C 953.369 342.9 955.941 342.617 958.399 341.921 C 961.142 341.144 963.9 340.15 966.261 338.551 C 968.124 337.29 969.663 335.562 971.034 333.778 C 972.286 332.149 973.397 330.365 974.123 328.443 C 975.472 324.871 975.993 321.011 976.369 317.212 C 976.609 314.791 977.241 311.783 977.211 309.35 Z" style="fill: rgb(251, 251, 251);"/>
    <path d="M 876.13 316.664 C 876.083 320.502 876.52 323.407 875.859 327.188 C 875.553 328.937 874.274 331.169 873.322 332.668 C 871.867 334.959 869.779 336.931 867.426 338.284 C 864.807 339.79 861.686 340.227 858.722 340.811 C 856.136 341.321 853.489 341.465 850.86 341.653 C 848.244 341.84 845.62 341.924 842.998 341.934 C 839.627 341.947 836.247 341.957 832.89 341.653 C 830.438 341.431 828.016 340.95 825.59 340.53 C 823.148 340.108 820.644 339.901 818.29 339.126 C 816.024 338.38 813.805 337.38 811.832 336.038 C 810.353 335.032 808.94 333.842 807.901 332.387 C 806.829 330.887 806.038 329.136 805.655 327.333 C 805.014 324.312 805.278 321.133 805.655 318.068 C 806.032 315.004 806.96 312.023 807.901 309.083 C 808.759 306.401 809.713 303.731 810.989 301.221 C 812.095 299.046 813.348 296.911 814.92 295.044 C 816.712 292.915 818.842 291.059 821.097 289.428 C 823.101 287.979 825.271 286.726 827.555 285.778 C 829.799 284.846 832.183 284.239 834.575 283.813 C 836.886 283.401 839.251 283.385 841.594 283.251 C 844.305 283.096 847.025 283.11 849.737 283.263 C 852.288 283.407 854.86 283.69 857.318 284.386 C 860.061 285.163 862.819 286.449 865.18 288.048 C 867.043 289.309 868.582 290.452 869.953 292.236 C 871.205 293.865 872.316 295.649 873.042 297.571 C 874.391 301.143 875.338 304.577 875.714 308.376 C 875.954 310.797 876.16 314.231 876.13 316.664 Z" style="fill: rgb(251, 251, 251);" transform="matrix(-1, 0, 0, -1, 1681.495568, 625.080198)"/>
  </g>
</svg>